<svg id="visual" xmlns="http://www.w3.org/2000/svg" xmlns:xlink="http://www.w3.org/1999/xlink" version="1.1" viewBox="0 416 960 125"><path d="M0 446L22.8 444.3C45.7 442.7 91.3 439.3 137 433.8C182.7 428.3 228.3 420.7 274 418.3C319.7 416 365.3 419 411.2 423.5C457 428 503 434 548.8 437.3C594.7 440.7 640.3 441.3 686 442.3C731.7 443.3 777.3 444.7 823 440.3C868.7 436 914.3 426 937.2 421L960 416L960 541L937.2 541C914.3 541 868.7 541 823 541C777.3 541 731.7 541 686 541C640.3 541 594.7 541 548.8 541C503 541 457 541 411.2 541C365.3 541 319.7 541 274 541C228.3 541 182.7 541 137 541C91.3 541 45.7 541 22.8 541L0 541Z" fill="#e0b100"/><path d="M0 434L22.8 437.3C45.7 440.7 91.3 447.3 137 453.5C182.7 459.7 228.3 465.3 274 466.2C319.7 467 365.3 463 411.2 458.8C457 454.7 503 450.3 548.8 451.5C594.7 452.7 640.3 459.3 686 465.3C731.7 471.3 777.3 476.7 823 478.3C868.7 480 914.3 478 937.2 477L960 476L960 541L937.2 541C914.3 541 868.7 541 823 541C777.3 541 731.7 541 686 541C640.3 541 594.7 541 548.8 541C503 541 457 541 411.2 541C365.3 541 319.7 541 274 541C228.3 541 182.7 541 137 541C91.3 541 45.7 541 22.8 541L0 541Z" fill="#57b463"/><path d="M0 470L22.8 472.2C45.7 474.3 91.3 478.7 137 480C182.7 481.3 228.3 479.7 274 480C319.7 480.3 365.3 482.7 411.2 486C457 489.3 503 493.7 548.8 493.5C594.7 493.3 640.3 488.7 686 483.8C731.7 479 777.3 474 823 474.7C868.7 475.3 914.3 481.7 937.2 484.8L960 488L960 541L937.2 541C914.3 541 868.7 541 823 541C777.3 541 731.7 541 686 541C640.3 541 594.7 541 548.8 541C503 541 457 541 411.2 541C365.3 541 319.7 541 274 541C228.3 541 182.7 541 137 541C91.3 541 45.7 541 22.8 541L0 541Z" fill="#009ca5"/><path d="M0 519L22.8 514.5C45.7 510 91.3 501 137 499C182.7 497 228.3 502 274 505.8C319.7 509.7 365.3 512.3 411.2 514.2C457 516 503 517 548.8 513.5C594.7 510 640.3 502 686 498.7C731.7 495.3 777.3 496.7 823 497.7C868.7 498.7 914.3 499.3 937.2 499.7L960 500L960 541L937.2 541C914.3 541 868.7 541 823 541C777.3 541 731.7 541 686 541C640.3 541 594.7 541 548.8 541C503 541 457 541 411.2 541C365.3 541 319.7 541 274 541C228.3 541 182.7 541 137 541C91.3 541 45.7 541 22.8 541L0 541Z" fill="#2774ae"/></svg>